Coordinates
version=1
nRows=35
nColumns=24
inDegrees=yes

Units are S.I. units (second, meters, Newtons, ...)
Angles are in degrees.

endheader
time	pelvis_tilt	pelvis_list	pelvis_rotation	pelvis_tx	pelvis_ty	pelvis_tz	hip_flexion_r	hip_adduction_r	hip_rotation_r	knee_angle_r	ankle_angle_r	subtalar_angle_r	mtp_angle_r	hip_flexion_l	hip_adduction_l	hip_rotation_l	knee_angle_l	ankle_angle_l	subtalar_angle_l	mtp_angle_l	lumbar_extension	lumbar_bending	lumbar_rotation
44.99800000	4.84455933	-1.84559258	-0.77772078	0.60102028	1.04559875	-0.02160049	-16.38856791	-2.90617367	-6.95037445	-22.52349513	-7.72278801	-0.00000082	0.00000000	28.94058538	1.38076320	0.20135362	-16.88513027	-0.52890934	0.00000249	0.00000000	-19.54310531	-0.47001089	-4.72635202
45.00000000	4.84455933	-1.84559258	-0.77772078	0.60102028	1.04559875	-0.02160049	-16.23697785	-2.90617367	-6.95037445	-23.12749314	-8.39569843	-0.00000082	0.00000000	28.85725141	1.38076320	0.20135362	-17.23603302	-0.89928943	0.00000249	0.00000000	-19.54310531	-0.47001089	-4.72635202
45.00200000	4.84455933	-1.84559258	-0.77772078	0.60102028	1.04559875	-0.02160049	-16.06031241	-2.90617367	-6.95037445	-23.75267898	-9.07742222	-0.00000082	0.00000000	28.78064893	1.38076320	0.20135362	-17.59323598	-1.28416543	0.00000249	0.00000000	-19.54310531	-0.47001089	-4.72635202
45.00400000	4.84455933	-1.84559258	-0.77772078	0.60102028	1.04559875	-0.02160049	-15.85889057	-2.90617367	-6.95037445	-24.40003109	-9.76482433	-0.00000082	0.00000000	28.71099901	1.38076320	0.20135362	-17.95590511	-1.67984208	0.00000249	0.00000000	-19.54310531	-0.47001089	-4.72635202
45.00600000	4.84455933	-1.84559258	-0.77772078	0.60102028	1.04559875	-0.02160049	-15.63349761	-2.90617367	-6.95037445	-25.07070186	-10.45451898	-0.00000082	0.00000000	28.64921021	1.38076320	0.20135362	-18.32300004	-2.08224996	0.00000249	0.00000000	-19.54310531	-0.47001089	-4.72635202
45.00800000	4.84455933	-1.84559258	-0.77772078	0.60102028	1.04559875	-0.02160049	-15.38458249	-2.90617367	-6.95037445	-25.76558373	-11.14289478	-0.00000082	0.00000000	28.59480503	1.38076320	0.20135362	-18.69430297	-2.48720017	0.00000249	0.00000000	-19.54310531	-0.47001089	-4.72635202
45.01000000	4.84455933	-1.84559258	-0.77772078	0.60102028	1.04559875	-0.02160049	-15.11236860	-2.90617367	-6.95037445	-26.48529905	-11.82609229	-0.00000082	0.00000000	28.54831841	1.38076320	0.20135362	-19.06920868	-2.89022367	0.00000249	0.00000000	-19.54310531	-0.47001089	-4.72635202
45.01200000	4.84455933	-1.84559258	-0.77772078	0.60102028	1.04559875	-0.02160049	-14.81891581	-2.90617367	-6.95037445	-27.23123553	-12.50029460	-0.00000082	0.00000000	28.51016242	1.38076320	0.20135362	-19.44725725	-3.28684028	0.00000249	0.00000000	-19.54310531	-0.47001089	-4.72635202
45.01400000	4.84455933	-1.84559258	-0.77772078	0.60102028	1.04559875	-0.02160049	-14.50746349	-2.90617367	-6.95037445	-28.00514195	-13.16167950	-0.00000082	0.00000000	28.48157617	1.38076320	0.20135362	-19.82761348	-3.67264050	0.00000249	0.00000000	-19.54310531	-0.47001089	-4.72635202
45.01600000	4.84455933	-1.84559258	-0.77772078	0.60102028	1.04559875	-0.02160049	-14.17530921	-2.90617367	-6.95037445	-28.80547952	-13.80600019	-0.00000082	0.00000000	28.45996027	1.38076320	0.20135362	-20.21135588	-4.04351351	0.00000249	0.00000000	-19.54310531	-0.47001089	-4.72635202
45.01800000	4.84455933	-1.84559258	-0.77772078	0.60102028	1.04559875	-0.02160049	-13.82495937	-2.90617367	-6.95037445	-29.63309150	-14.42946645	-0.00000082	0.00000000	28.44344336	1.38076320	0.20135362	-20.59911404	-4.39561385	0.00000249	0.00000000	-19.54310531	-0.47001089	-4.72635202
45.02000000	4.84455933	-1.84559258	-0.77772078	0.60102028	1.04559875	-0.02160049	-13.45794101	-2.90617367	-6.95037445	-30.48797179	-15.02833130	-0.00000082	0.00000000	28.43143391	1.38076320	0.20135362	-20.99074828	-4.72534494	0.00000249	0.00000000	-19.54310531	-0.47001089	-4.72635202
45.02200000	4.84455933	-1.84559258	-0.77772078	0.60102028	1.04559875	-0.02160049	-13.07512426	-2.90617367	-6.95037445	-31.36946933	-15.59892317	-0.00000082	0.00000000	28.42231613	1.38076320	0.20135362	-21.38645232	-5.02939278	0.00000249	0.00000000	-19.54310531	-0.47001089	-4.72635202
45.02400000	4.84455933	-1.84559258	-0.77772078	0.60102028	1.04559875	-0.02160049	-12.67650878	-2.90617367	-6.95037445	-32.27614193	-16.13776852	-0.00000082	0.00000000	28.41435463	1.38076320	0.20135362	-21.78625452	-5.30496507	0.00000249	0.00000000	-19.54310531	-0.47001089	-4.72635202
45.02600000	4.84455933	-1.84559258	-0.77772078	0.60102028	1.04559875	-0.02160049	-12.26295705	-2.90617367	-6.95037445	-33.20666886	-16.64173742	-0.00000082	0.00000000	28.40672303	1.38076320	0.20135362	-22.18947912	-5.54960684	0.00000249	0.00000000	-19.54310531	-0.47001089	-4.72635202
45.02800000	4.84455933	-1.84559258	-0.77772078	0.60102028	1.04559875	-0.02160049	-11.83530663	-2.90617367	-6.95037445	-34.15940289	-17.10803236	-0.00000082	0.00000000	28.39779369	1.38076320	0.20135362	-22.59559090	-5.76137786	0.00000249	0.00000000	-19.54310531	-0.47001089	-4.72635202
45.03000000	4.84455933	-1.84559258	-0.77772078	0.60102028	1.04559875	-0.02160049	-11.39387252	-2.90617367	-6.95037445	-35.13212203	-17.53423743	-0.00000082	0.00000000	28.38615798	1.38076320	0.20135362	-23.00369353	-5.93884168	0.00000249	0.00000000	-19.54310531	-0.47001089	-4.72635202
45.03200000	4.84455933	-1.84559258	-0.77772078	0.60102028	1.04559875	-0.02160049	-10.93965211	-2.90617367	-6.95037445	-36.12270579	-17.91838344	-0.00000082	0.00000000	28.37044039	1.38076320	0.20135362	-23.41264009	-6.08101864	0.00000249	0.00000000	-19.54310531	-0.47001089	-4.72635202
45.03400000	4.84455933	-1.84559258	-0.77772078	0.60102028	1.04559875	-0.02160049	-10.47408378	-2.90617367	-6.95037445	-37.12901614	-18.25899346	-0.00000082	0.00000000	28.35021400	1.38076320	0.20135362	-23.82060934	-6.18739670	0.00000249	0.00000000	-19.54310531	-0.47001089	-4.72635202
45.03600000	4.84455933	-1.84559258	-0.77772078	0.60102028	1.04559875	-0.02160049	-9.99822020	-2.90617367	-6.95037445	-38.14853604	-18.55501813	-0.00000082	0.00000000	28.32554617	1.38076320	0.20135362	-24.22537798	-6.25790511	0.00000249	0.00000000	-19.54310531	-0.47001089	-4.72635202
45.03800000	4.84455933	-1.84559258	-0.77772078	0.60102028	1.04559875	-0.02160049	-9.51284309	-2.90617367	-6.95037445	-39.17845224	-18.80586073	-0.00000082	0.00000000	28.29553437	1.38076320	0.20135362	-24.62510260	-6.29299108	0.00000249	0.00000000	-19.54310531	-0.47001089	-4.72635202
45.04000000	4.84455933	-1.84559258	-0.77772078	0.60102028	1.04559875	-0.02160049	-9.01841045	-2.90617367	-6.95037445	-40.21569995	-19.01137018	-0.00000082	0.00000000	28.25891899	1.38076320	0.20135362	-25.01804989	-6.29356532	0.00000249	0.00000000	-19.54310531	-0.47001089	-4.72635202
45.04200000	4.84455933	-1.84559258	-0.77772078	0.60102028	1.04559875	-0.02160049	-8.51618827	-2.90617367	-6.95037445	-41.25758749	-19.17190381	-0.00000082	0.00000000	28.21533917	1.38076320	0.20135362	-25.40200648	-6.26084746	0.00000249	0.00000000	-19.54310531	-0.47001089	-4.72635202
45.04400000	4.84455933	-1.84559258	-0.77772078	0.60102028	1.04559875	-0.02160049	-8.00663516	-2.90617367	-6.95037445	-42.30105588	-19.28818397	-0.00000082	0.00000000	28.16371126	1.38076320	0.20135362	-25.77512680	-6.19641707	0.00000249	0.00000000	-19.54310531	-0.47001089	-4.72635202
45.04600000	4.84455933	-1.84559258	-0.77772078	0.60102028	1.04559875	-0.02160049	-7.49047657	-2.90617367	-6.95037445	-43.34321762	-19.36134689	-0.00000082	0.00000000	28.10292559	1.38076320	0.20135362	-26.13561313	-6.10216880	0.00000249	0.00000000	-19.54310531	-0.47001089	-4.72635202
45.04800000	4.84455933	-1.84559258	-0.77772078	0.60102028	1.04559875	-0.02160049	-6.96815932	-2.90617367	-6.95037445	-44.38120725	-19.39288960	-0.00000082	0.00000000	28.03130091	1.38076320	0.20135362	-26.48200871	-5.98025526	0.00000249	0.00000000	-19.54310531	-0.47001089	-4.72635202
45.05000000	4.84455933	-1.84559258	-0.77772078	0.60102028	1.04559875	-0.02160049	-6.44044603	-2.90617367	-6.95037445	-45.41246529	-19.38464348	-0.00000082	0.00000000	27.94761138	1.38076320	0.20135362	-26.81271101	-5.83298264	0.00000249	0.00000000	-19.54310531	-0.47001089	-4.72635202
45.05200000	4.84455933	-1.84559258	-0.77772078	0.60102028	1.04559875	-0.02160049	-5.90747295	-2.90617367	-6.95037445	-46.43429095	-19.33865099	-0.00000082	0.00000000	27.85065123	1.38076320	0.20135362	-27.12621751	-5.66278898	0.00000249	0.00000000	-19.54310531	-0.47001089	-4.72635202
45.05400000	4.84455933	-1.84559258	-0.77772078	0.60102028	1.04559875	-0.02160049	-5.36972402	-2.90617367	-6.95037445	-47.44440970	-19.25719285	-0.00000082	0.00000000	27.73912936	1.38076320	0.20135362	-27.42120049	-5.47216283	0.00000249	0.00000000	-19.54310531	-0.47001089	-4.72635202
45.05600000	4.84455933	-1.84559258	-0.77772078	0.60102028	1.04559875	-0.02160049	-4.82753950	-2.90617367	-6.95037445	-48.44071246	-19.14268180	-0.00000082	0.00000000	27.61221802	1.38076320	0.20135362	-27.69626265	-5.26358450	0.00000249	0.00000000	-19.54310531	-0.47001089	-4.72635202
45.05800000	4.84455933	-1.84559258	-0.77772078	0.60102028	1.04559875	-0.02160049	-4.28181681	-2.90617367	-6.95037445	-49.42163584	-18.99766364	-0.00000082	0.00000000	27.46956564	1.38076320	0.20135362	-27.94995518	-5.03947985	0.00000249	0.00000000	-19.54310531	-0.47001089	-4.72635202
45.06000000	4.84455933	-1.84559258	-0.77772078	0.60102028	1.04559875	-0.02160049	-3.73346283	-2.90617367	-6.95037445	-50.38583732	-18.82473579	-0.00000082	0.00000000	27.31196063	1.38076320	0.20135362	-28.18047279	-4.80219869	0.00000249	0.00000000	-19.54310531	-0.47001089	-4.72635202
45.06200000	4.84455933	-1.84559258	-0.77772078	0.60102028	1.04559875	-0.02160049	-3.18282385	-2.90617367	-6.95037445	-51.33198139	-18.62642482	-0.00000082	0.00000000	27.13853624	1.38076320	0.20135362	-28.38707451	-4.55405323	0.00000249	0.00000000	-19.54310531	-0.47001089	-4.72635202
45.06400000	4.84455933	-1.84559258	-0.77772078	0.60102028	1.04559875	-0.02160049	-2.63045695	-2.90617367	-6.95037445	-52.25905272	-18.40519351	-0.00000082	0.00000000	26.94898178	1.38076320	0.20135362	-28.56899149	-4.29721113	0.00000249	0.00000000	-19.54310531	-0.47001089	-4.72635202
45.06600000	4.84455933	-1.84559258	-0.77772078	0.60102028	1.04559875	-0.02160049	-2.07662099	-2.90617367	-6.95037445	-53.16614674	-18.16338119	-0.00000082	0.00000000	26.74292749	1.38076320	0.20135362	-28.72573845	-4.03371826	0.00000249	0.00000000	-19.54310531	-0.47001089	-4.72635202
